<?xml version="1.0" encoding="iso-8859-1"?>
<!-- Generator: Adobe Illustrator 23.0.3, SVG Export Plug-In . SVG Version: 6.00 Build 0)  -->
<svg version="1.1" id="OBJECTS" xmlns="http://www.w3.org/2000/svg" xmlns:xlink="http://www.w3.org/1999/xlink" x="0px" y="0px"
	 viewBox="0 0 500 500" style="enable-background:new 0 0 500 500;" xml:space="preserve">
<g>
	<g>
		<g>
			<g>
				<g>
					<g style="opacity:0.83;">
						<path style="opacity:0.34;fill:#FFFFFF;" d="M465,340.78V387H59.69C46.06,387,35,375.94,35,362.31v-14.23
							c39-22.41,71.919-46.623,137.11-23.32C319.085,377.298,451.13,338.7,465,340.78z"/>
						<path style="opacity:0.34;fill:#FFFFFF;" d="M465,351.136V387H59.69C46.06,387,35,375.94,35,362.31v-53.28
							c66.043-22.115,84.175,36.653,145.6,45.93C320.256,376.052,388.021,299.833,465,351.136z"/>
						<path style="opacity:0.18;fill:#FFFFFF;" d="M465,296.96V387H59.69C46.06,387,35,375.94,35,362.31v-22.62
							C285.383,355.34,372.191,282.805,465,296.96z"/>
					</g>
					<path style="opacity:0.25;fill-rule:evenodd;clip-rule:evenodd;fill:#FFFFFF;" d="M35,139.69v25.568
						C60.019,146.48,94.847,134.298,142,145c89.255,20.258,248.574,27.532,323-20.979V115H59.69C46.06,115,35,126.06,35,139.69z"/>
				</g>
			</g>
		</g>
	</g>
</g>
</svg>
